<svg width="117" height="48" viewBox="0 0 117 48" fill="none" xmlns="http://www.w3.org/2000/svg">
<g clip-path="url(#clip0_0_6533)">
<rect opacity="0.25" width="117" height="48" rx="24" fill="white"/>
<path fill-rule="evenodd" clip-rule="evenodd" d="M9 24C9 15.7125 15.7125 9 24 9C32.2875 9 39 15.7125 39 24C39 32.2875 32.2875 39 24 39C15.7125 39 9 32.2875 9 24ZM30 23.5L21 17V30L30 23.5Z" fill="white"/>
<path d="M60.79 25.248V23.448H63.94C64.372 23.448 64.75 23.364 65.074 23.196C65.41 23.016 65.674 22.77 65.866 22.458C66.058 22.134 66.154 21.756 66.154 21.324C66.154 20.892 66.058 20.52 65.866 20.208C65.674 19.884 65.41 19.638 65.074 19.47C64.75 19.29 64.372 19.2 63.94 19.2H60.79V17.4H64.048C64.84 17.4 65.548 17.562 66.172 17.886C66.808 18.21 67.306 18.666 67.666 19.254C68.038 19.842 68.224 20.532 68.224 21.324C68.224 22.116 68.038 22.806 67.666 23.394C67.306 23.982 66.808 24.438 66.172 24.762C65.548 25.086 64.84 25.248 64.048 25.248H60.79ZM59.368 30V17.4H61.438V30H59.368ZM69.9613 30V17.04H71.9413V30H69.9613ZM77.7629 30.18C76.9829 30.18 76.2749 29.982 75.6389 29.586C75.0149 29.19 74.5169 28.656 74.1449 27.984C73.7849 27.3 73.6049 26.538 73.6049 25.698C73.6049 24.846 73.7849 24.084 74.1449 23.412C74.5169 22.728 75.0149 22.188 75.6389 21.792C76.2749 21.384 76.9829 21.18 77.7629 21.18C78.4229 21.18 79.0049 21.324 79.5089 21.612C80.0249 21.888 80.4329 22.272 80.7329 22.764C81.0329 23.256 81.1829 23.814 81.1829 24.438V26.922C81.1829 27.546 81.0329 28.104 80.7329 28.596C80.4449 29.088 80.0429 29.478 79.5269 29.766C79.0109 30.042 78.4229 30.18 77.7629 30.18ZM78.0869 28.308C78.8189 28.308 79.4069 28.062 79.8509 27.57C80.3069 27.078 80.5349 26.448 80.5349 25.68C80.5349 25.164 80.4329 24.708 80.2289 24.312C80.0249 23.916 79.7369 23.61 79.3649 23.394C79.0049 23.166 78.5789 23.052 78.0869 23.052C77.6069 23.052 77.1809 23.166 76.8089 23.394C76.4489 23.61 76.1609 23.916 75.9449 24.312C75.7409 24.708 75.6389 25.164 75.6389 25.68C75.6389 26.196 75.7409 26.652 75.9449 27.048C76.1609 27.444 76.4489 27.756 76.8089 27.984C77.1809 28.2 77.6069 28.308 78.0869 28.308ZM80.4089 30V27.678L80.7509 25.572L80.4089 23.484V21.36H82.3889V30H80.4089ZM87.3763 30.09L83.6863 21.36H85.8643L88.3843 27.768H87.7543L90.4183 21.36H92.6143L88.6003 30.09H87.3763ZM84.8023 33.6L87.4843 28.074L88.6003 30.09L86.9983 33.6H84.8023Z" fill="white"/>
</g>
<defs>
<clipPath id="clip0_0_6533">
<rect width="117" height="48" fill="white"/>
</clipPath>
</defs>
</svg>
